<?xml version="1.0" encoding="utf-8"?>
<svg version="1.1" id="Calque_1" xmlns="http://www.w3.org/2000/svg" xmlns:xlink="http://www.w3.org/1999/xlink" x="0px" y="0px" viewBox="0 0 71 44.58" fill="#b299cc">
  <path d="M61.92,44.58H9.08A9.09,9.09,0,0,1,0,35.5V9.08A9.09,9.09,0,0,1,9.08,0H61.92A9.09,9.09,0,0,1,71,9.08V35.5A9.09,9.09,0,0,1,61.92,44.58ZM9.08,5A4.14,4.14,0,0,0,5,9.08V35.5a4.14,4.14,0,0,0,4.13,4.13H61.92a4.14,4.14,0,0,0,4.13-4.13V9.08A4.14,4.14,0,0,0,61.92,5Z" />
  <path d="M15.69,18.16a2.52,2.52,0,0,1-1.76-.72,1.86,1.86,0,0,1-.3-.38,2.22,2.22,0,0,1-.23-.43,2.24,2.24,0,0,1-.14-.46,2.63,2.63,0,0,1,0-.49,2.7,2.7,0,0,1,0-.48,2.44,2.44,0,0,1,.14-.46,1.88,1.88,0,0,1,.23-.42,1.86,1.86,0,0,1,.3-.38,2.56,2.56,0,0,1,3.51,0,2.33,2.33,0,0,1,.31.38,1.53,1.53,0,0,1,.22.42,2.44,2.44,0,0,1,.14.46,2.7,2.7,0,0,1,.05.48,2.63,2.63,0,0,1-.05.49,2.24,2.24,0,0,1-.14.46,1.94,1.94,0,0,1-.22.43,2.33,2.33,0,0,1-.31.38,2.63,2.63,0,0,1-.38.3,2.46,2.46,0,0,1-.42.23,2.54,2.54,0,0,1-.47.14A2,2,0,0,1,15.69,18.16Z" />
  <path d="M28.89,18.16a2.46,2.46,0,0,1-1.74-4.22,2.17,2.17,0,0,1,.37-.31,2.26,2.26,0,0,1,.43-.24,2.64,2.64,0,0,1,1.43-.13,2.42,2.42,0,0,1,.46.13,2.26,2.26,0,0,1,.43.24,1.91,1.91,0,0,1,.38.31,2.47,2.47,0,0,1,.72,1.74,2.52,2.52,0,0,1-.72,1.76,1.86,1.86,0,0,1-.38.3,2.22,2.22,0,0,1-.43.23,2.44,2.44,0,0,1-.46.14A2,2,0,0,1,28.89,18.16Z" />
  <path d="M42.11,18.16a2.46,2.46,0,0,1-2.48-2.48,2.47,2.47,0,0,1,.72-1.74,2.54,2.54,0,0,1,3.5,0,2.38,2.38,0,0,1,.32.38,1.86,1.86,0,0,1,.22.42,2.57,2.57,0,0,1,.15.47,3.71,3.71,0,0,1,0,.47,2.46,2.46,0,0,1-2.46,2.48Z" />
  <path d="M55.31,18.16a2.67,2.67,0,0,1-.48,0,3.68,3.68,0,0,1-.47-.15,2.46,2.46,0,0,1-.42-.23,2.63,2.63,0,0,1-.38-.3,2.33,2.33,0,0,1-.31-.38,2.22,2.22,0,0,1-.23-.43,3.09,3.09,0,0,1-.13-.46,2.63,2.63,0,0,1,0-.49,2.5,2.5,0,0,1,0-.47,3.62,3.62,0,0,1,.13-.47,1.88,1.88,0,0,1,.23-.42,2.33,2.33,0,0,1,.31-.38,2.72,2.72,0,0,1,.38-.31,2,2,0,0,1,.89-.37,2.48,2.48,0,0,1,2.24.68,1.86,1.86,0,0,1,.3.38,1.88,1.88,0,0,1,.23.42,2.54,2.54,0,0,1,.14.47,2.5,2.5,0,0,1,0,.47,2.63,2.63,0,0,1,0,.49,2.24,2.24,0,0,1-.14.46,2.22,2.22,0,0,1-.23.43,1.86,1.86,0,0,1-.3.38A2.52,2.52,0,0,1,55.31,18.16Z" />
  <path d="M15.69,31.41a2.49,2.49,0,1,1,2.47-2.51v0A2.48,2.48,0,0,1,15.69,31.41Z" />
  <path d="M55.31,31.41a2.49,2.49,0,1,1,2.48-2.51v0A2.48,2.48,0,0,1,55.31,31.41Z" />
  <path d="M42.1,31.37H28.9a2.48,2.48,0,1,1,0-4.95H42.1a2.48,2.48,0,1,1,0,4.95Z" />
</svg>
