<svg xmlns="http://www.w3.org/2000/svg">

	<symbol id="icon-compass" viewBox="0 0 24 24">
	  <path stroke="none" d="M0 0h24v24H0z" fill="none"/>
	  <polyline points="8 16 10 10 16 8 14 14 8 16" />
	  <circle cx="12" cy="12" r="9" />
	  <line x1="12" y1="3" x2="12" y2="5" />
	  <line x1="12" y1="19" x2="12" y2="21" />
	  <line x1="3" y1="12" x2="5" y2="12" />
	  <line x1="19" y1="12" x2="21" y2="12" />
	</symbol>

	<symbol id="icon-github" viewBox="0 0 24 24">
	  <path stroke="none" d="M0 0h24v24H0z" fill="none"/>
	  <path d="M9 19c-4.3 1.4 -4.3 -2.5 -6 -3m12 5v-3.5c0 -1 .1 -1.4 -.5 -2c2.8 -.3 5.5 -1.4 5.5 -6a4.6 4.6 0 0 0 -1.3 -3.2a4.2 4.2 0 0 0 -.1 -3.2s-1.1 -.3 -3.5 1.3a12.3 12.3 0 0 0 -6.2 0c-2.4 -1.6 -3.5 -1.3 -3.5 -1.3a4.2 4.2 0 0 0 -.1 3.2a4.6 4.6 0 0 0 -1.3 3.2c0 4.6 2.7 5.7 5.5 6c-.6 .6 -.6 1.2 -.5 2v3.5" />
	</symbol>

	<symbol id="icon-section" viewBox="0 0 24 24">
	  <path stroke="none" d="M0 0h24v24H0z" fill="none"/>
	  <path d="M20 20h.01" />
	  <path d="M4 20h.01" />
	  <path d="M8 20h.01" />
	  <path d="M12 20h.01" />
	  <path d="M16 20h.01" />
	  <path d="M20 4h.01" />
	  <path d="M4 4h.01" />
	  <path d="M8 4h.01" />
	  <path d="M12 4h.01" />
	  <path d="M16 4l0 0" />
	  <rect x="4" y="8" width="16" height="8" rx="1" />
	</symbol>

	<symbol id="icon-photo" viewBox="0 0 24 24">
		<path stroke="none" d="M0 0h24v24H0z" fill="none"/>
		<line x1="15" y1="8" x2="15.01" y2="8" />
		<rect x="4" y="4" width="16" height="16" rx="3" />
		<path d="M4 15l4 -4a3 5 0 0 1 3 0l5 5" />
		<path d="M14 14l1 -1a3 5 0 0 1 3 0l2 2" />
	</symbol>

	<symbol id="icon-rectangle" viewBox="0 0 24 24">
	  <path stroke="none" d="M0 0h24v24H0z" fill="none"/>
	  <rect x="3" y="5" width="18" height="14" rx="2" />
	</symbol>

	<symbol id="icon-forms" viewBox="0 0 24 24">
		<path stroke="none" d="M0 0h24v24H0z" fill="none"/>
		<path d="M12 3a3 3 0 0 0 -3 3v12a3 3 0 0 0 3 3" />
		<path d="M6 3a3 3 0 0 1 3 3v12a3 3 0 0 1 -3 3" />
		<path d="M13 7h7a1 1 0 0 1 1 1v8a1 1 0 0 1 -1 1h-7" />
		<path d="M5 7h-1a1 1 0 0 0 -1 1v8a1 1 0 0 0 1 1h1" />
		<path d="M17 12h.01" />
		<path d="M13 12h.01" />
	</symbol>

	<symbol id="icon-target" viewBox="0 0 24 24">
		<path stroke="none" d="M0 0h24v24H0z" fill="none"/>
		<circle cx="12" cy="12" r="1" />
		<circle cx="12" cy="12" r="5" />
		<circle cx="12" cy="12" r="9" />
	</symbol>

	<symbol id="icon-terminal" viewBox="0 0 24 24">
		<path stroke="none" d="M0 0h24v24H0z" fill="none"/>
		<path d="M5 7l5 5l-5 5" />
		<line x1="12" y1="19" x2="19" y2="19" />
	</symbol>

	<symbol id="icon-codepen" viewBox="0 0 24 24">
	  <path stroke="none" d="M0 0h24v24H0z" fill="none"/>
	  <path d="M3 15l9 6l9 -6l-9 -6l-9 6" />
	  <path d="M3 9l9 6l9 -6l-9 -6l-9 6" />
	  <line x1="3" y1="9" x2="3" y2="15" />
	  <line x1="21" y1="9" x2="21" y2="15" />
	  <line x1="12" y1="3" x2="12" y2="9" />
	  <line x1="12" y1="15" x2="12" y2="21" />
	</symbol>

	<symbol id="icon-mail" viewBox="0 0 24 24">
	  <path stroke="none" d="M0 0h24v24H0z" fill="none"/>
	  <rect x="3" y="5" width="18" height="14" rx="2" />
	  <polyline points="3 7 12 13 21 7" />
	</symbol>

	<symbol id="icon-linkedin" viewBox="0 0 24 24">
	  <path stroke="none" d="M0 0h24v24H0z" fill="none"/>
	  <rect x="4" y="4" width="16" height="16" rx="2" />
	  <line x1="8" y1="11" x2="8" y2="16" />
	  <line x1="8" y1="8" x2="8" y2="8.01" />
	  <line x1="12" y1="16" x2="12" y2="11" />
	  <path d="M16 16v-3a2 2 0 0 0 -4 0" />
	</symbol>

	<symbol id="icon-bars" viewBox="0 0 24 24">
	  <path stroke="none" d="M0 0h24v24H0z" fill="none"/>
	  <line x1="4" y1="6" x2="20" y2="6" />
	  <line x1="4" y1="12" x2="20" y2="12" />
	  <line x1="4" y1="18" x2="20" y2="18" />
	</symbol>

	<symbol id="icon-share" viewBox="0 0 24 24">
	  <path stroke="none" d="M0 0h24v24H0z" fill="none"/>
	  <circle cx="6" cy="12" r="3" />
	  <circle cx="18" cy="6" r="3" />
	  <circle cx="18" cy="18" r="3" />
	  <line x1="8.7" y1="10.7" x2="15.3" y2="7.3" />
	  <line x1="8.7" y1="13.3" x2="15.3" y2="16.7" />
	</symbol>

	<symbol id="icon-dots" viewBox="0 0 24 24">
	  <path stroke="none" d="M0 0h24v24H0z" fill="none"/>
	  <circle cx="12" cy="12" r="1" />
	  <circle cx="12" cy="19" r="1" />
	  <circle cx="12" cy="5" r="1" />
	</symbol>

	<symbol id="icon-twitter" viewBox="0 0 24 24">
	  <path stroke="none" d="M0 0h24v24H0z" fill="none"/>
	  <path d="M22 4.01c-1 .49 -1.98 .689 -3 .99c-1.121 -1.265 -2.783 -1.335 -4.38 -.737s-2.643 2.06 -2.62 3.737v1c-3.245 .083 -6.135 -1.395 -8 -4c0 0 -4.182 7.433 4 11c-1.872 1.247 -3.739 2.088 -6 2c3.308 1.803 6.913 2.423 10.034 1.517c3.58 -1.04 6.522 -3.723 7.651 -7.742a13.84 13.84 0 0 0 .497 -3.753c-.002 -.249 1.51 -2.772 1.818 -4.013z" />
	</symbol>

	<symbol id="icon-slack" viewBox="0 0 24 24">
	  <path stroke="none" d="M0 0h24v24H0z" fill="none"/>
	  <path d="M12 12v-6a2 2 0 0 1 4 0v6m0 -2a2 2 0 1 1 2 2h-6" />
	  <path d="M12 12h6a2 2 0 0 1 0 4h-6m2 0a2 2 0 1 1 -2 2v-6" />
	  <path d="M12 12v6a2 2 0 0 1 -4 0v-6m0 2a2 2 0 1 1 -2 -2h6" />
	  <path d="M12 12h-6a2 2 0 0 1 0 -4h6m-2 0a2 2 0 1 1 2 -2v6" />
	</symbol>

	<symbol id="icon-link" viewBox="0 0 24 24">
	  <path stroke="none" d="M0 0h24v24H0z" fill="none"/>
	  <path d="M10 14a3.5 3.5 0 0 0 5 0l4 -4a3.5 3.5 0 0 0 -5 -5l-.5 .5" />
	  <path d="M14 10a3.5 3.5 0 0 0 -5 0l-4 4a3.5 3.5 0 0 0 5 5l.5 -.5" />
	</symbol>

	<symbol id="icon-laptop" viewBox="0 0 24 24">
	  <path stroke="none" d="M0 0h24v24H0z" fill="none"/>
	  <line x1="3" y1="19" x2="21" y2="19" />
	  <rect x="5" y="6" width="14" height="10" rx="1" />
	</symbol>

	<symbol id="icon-desktop" viewBox="0 0 24 24">
	  <path stroke="none" d="M0 0h24v24H0z" fill="none"/>
	  <rect x="3" y="4" width="18" height="12" rx="1" />
	  <line x1="7" y1="20" x2="17" y2="20" />
	  <line x1="9" y1="16" x2="9" y2="20" />
	  <line x1="15" y1="16" x2="15" y2="20" />
	</symbol>

	<symbol id="icon-rocket" viewBox="0 0 24 24">
	  <path stroke="none" d="M0 0h24v24H0z" fill="none"/>
	  <path d="M4 13a8 8 0 0 1 7 7a6 6 0 0 0 3 -5a9 9 0 0 0 6 -8a3 3 0 0 0 -3 -3a9 9 0 0 0 -8 6a6 6 0 0 0 -5 3" />
	  <path d="M7 14a6 6 0 0 0 -3 6a6 6 0 0 0 6 -3" />
	  <circle cx="15" cy="9" r="1" />
	</symbol>

	<symbol id="icon-sun" viewBox="0 0 24 24">
  		<path stroke="none" d="M0 0h24v24H0z" fill="none"/>
  		<circle cx="12" cy="12" r="4" />
  		<path d="M3 12h1m8 -9v1m8 8h1m-9 8v1m-6.4 -15.4l.7 .7m12.1 -.7l-.7 .7m0 11.4l.7 .7m-12.1 -.7l-.7 .7" />
	</symbol>

	<symbol id="icon-moon" viewBox="0 0 24 24">
	  <path stroke="none" d="M0 0h24v24H0z" fill="none"/>
	  <path d="M12 3c.132 0 .263 0 .393 0a7.5 7.5 0 0 0 7.92 12.446a9 9 0 1 1 -8.313 -12.454z" />
	</symbol>

	<symbol id="icon-keyboard" viewBox="0 0 24 24">
	  <path stroke="none" d="M0 0h24v24H0z" fill="none"/>
	  <rect x="2" y="6" width="20" height="12" rx="2" />
	  <line x1="6" y1="10" x2="6" y2="10" />
	  <line x1="10" y1="10" x2="10" y2="10" />
	  <line x1="14" y1="10" x2="14" y2="10" />
	  <line x1="18" y1="10" x2="18" y2="10" />
	  <line x1="6" y1="14" x2="6" y2="14.01" />
	  <line x1="18" y1="14" x2="18" y2="14.01" />
	  <line x1="10" y1="14" x2="14" y2="14" />
	</symbol>

	<symbol id="icon-volume" viewBox="0 0 24 24">
	  <path stroke="none" d="M0 0h24v24H0z" fill="none"/>
	  <path d="M15 8a5 5 0 0 1 0 8" />
	  <path d="M17.7 5a9 9 0 0 1 0 14" />
	  <path d="M6 15h-2a1 1 0 0 1 -1 -1v-4a1 1 0 0 1 1 -1h2l3.5 -4.5a0.8 .8 0 0 1 1.5 .5v14a0.8 .8 0 0 1 -1.5 .5l-3.5 -4.5" />
	</symbol>

	<symbol id="icon-a11y" stroke="currentColor" viewBox="0 0 24 24">
	  <path stroke="none" d="M0 0h24v24H0z" fill="none"/>
	  <circle cx="12" cy="12" r="9" />
	  <path d="M10 16.5l2 -3l2 3m-2 -3v-2l3 -1m-6 0l3 1" />
	  <circle cx="12" cy="7.5" r=".5" fill="currentColor" />
	</symbol>

	<symbol id="icon-ear-off" stroke="currentColor" viewBox="0 0 24 24">
		<path stroke="none" d="M0 0h24v24H0z" fill="none"/>
		<path d="M6 10c0 -1.146 .277 -2.245 .78 -3.219m1.792 -2.208a7 7 0 0 1 10.428 9.027a10 10 0 0 1 -.633 .762m-2.045 1.96a8 8 0 0 0 -1.322 2.278a4.5 4.5 0 0 1 -6.8 1.4" />
		<path d="M11.42 7.414a3 3 0 0 1 4.131 4.13" />
		<line x1="3" y1="3" x2="21" y2="21" />
	</symbol>

	<symbol id="icon-stop" stroke="currentColor" viewBox="0 0 24 24">
		<path stroke="none" d="M0 0h24v24H0z" fill="none"/>
		<rect x="5" y="5" width="14" height="14" rx="2" />
	</symbol>

	<symbol id="icon-pause" stroke="currentColor" viewBox="0 0 24 24">
		<path stroke="none" d="M0 0h24v24H0z" fill="none"/>
		<rect x="6" y="5" width="4" height="14" rx="1" />
		<rect x="14" y="5" width="4" height="14" rx="1" />
	</symbol>

	<symbol id="icon-battery" stroke="currentColor" viewBox="0 0 24 24">
		<path stroke="none" d="M0 0h24v24H0z" fill="none"/>
		<path d="M6 7h11a2 2 0 0 1 2 2v.5a0.5 .5 0 0 0 .5 .5a0.5 .5 0 0 1 .5 .5v3a0.5 .5 0 0 1 -.5 .5a0.5 .5 0 0 0 -.5 .5v.5a2 2 0 0 1 -2 2h-11a2 2 0 0 1 -2 -2v-6a2 2 0 0 1 2 -2" />
		<line x1="7" y1="10" x2="7" y2="14" />
		<line x1="10" y1="10" x2="10" y2="14" />
		<line x1="13" y1="10" x2="13" y2="14" />
	</symbol>

	<symbol id="icon-calendar-time" stroke="currentColor" viewBox="0 0 24 24">
		<path stroke="none" d="M0 0h24v24H0z" fill="none"/>
		<path d="M11.795 21h-6.795a2 2 0 0 1 -2 -2v-12a2 2 0 0 1 2 -2h12a2 2 0 0 1 2 2v4" />
		<circle cx="18" cy="18" r="4" />
		<path d="M15 3v4" />
		<path d="M7 3v4" />
		<path d="M3 11h16" />
		<path d="M18 16.496v1.504l1 1" />
	</symbol>

	<symbol id="icon-arrow-autofit-down" stroke="currentColor" viewBox="0 0 24 24">
		<path stroke="none" d="M0 0h24v24H0z" fill="none"/>
		<path d="M12 20h-6a2 2 0 0 1 -2 -2v-12a2 2 0 0 1 2 -2h8" />
		<path d="M18 4v17" />
		<path d="M15 18l3 3l3 -3" />
	</symbol>

	<symbol id="icon-arrow-autofit-up" stroke="currentColor" viewBox="0 0 24 24">
		<path stroke="none" d="M0 0h24v24H0z" fill="none"/>
		<path d="M12 4h-6a2 2 0 0 0 -2 2v12a2 2 0 0 0 2 2h8" />
		<path d="M18 20v-17" />
		<path d="M15 6l3 -3l3 3" />
	</symbol>

	<symbol id="icon-arrow-up-circle" stroke="currentColor" viewBox="0 0 24 24">
		<path stroke="none" d="M0 0h24v24H0z" fill="none"/>
		<line x1="12" y1="17" x2="12" y2="3" />
		<path d="M15 6l-3 -3l-3 3" />
		<path d="M10 21v-4h4v4z" />
	</symbol>

	<symbol id="icon-arrow-right-circle" stroke="currentColor" viewBox="0 0 24 24">
		<path stroke="none" d="M0 0h24v24H0z" fill="none"/>
		<line x1="7" y1="12" x2="21" y2="12" />
		<path d="M18 15l3 -3l-3 -3" />
		<path d="M3 10h4v4h-4z" />
	</symbol>

	<symbol id="icon-arrow-down-circle" stroke="currentColor" viewBox="0 0 24 24">
		<path stroke="none" d="M0 0h24v24H0z" fill="none"/>
		<path d="M12 7v14" />
		<path d="M9 18l3 3l3 -3" />
		<path d="M14 3v4h-4v-4z" />
	</symbol>

	<symbol id="icon-arrow-left-circle" stroke="currentColor" viewBox="0 0 24 24">
		<path stroke="none" d="M0 0h24v24H0z" fill="none"/>
		<path d="M17 12h-14" />
		<path d="M6 9l-3 3l3 3" />
		<path d="M21 14h-4v-4h4z" />
	</symbol>
	
	<symbol id="icon-tab" stroke="currentColor" viewBox="0 0 24 24">
		<path stroke="none" d="M0 0h24v24H0z" fill="none"/>
		<line x1="21" y1="17" x2="3" y2="17" />
		<path d="M6 10l-3 -3l3 -3" />
		<line x1="3" y1="7" x2="21" y2="7" />
		<path d="M18 20l3 -3l-3 -3" />
	</symbol>
	
	<symbol id="icon-arrow-up" stroke="currentColor" viewBox="0 0 24 24">
		<path stroke="none" d="M0 0h24v24H0z" fill="none"/>
		<line x1="12" y1="5" x2="12" y2="19" />
		<line x1="16" y1="9" x2="12" y2="5" />
		<line x1="8" y1="9" x2="12" y2="5" />
	</symbol>
	
	<symbol id="icon-arrow-down" stroke="currentColor" viewBox="0 0 24 24">
		<path stroke="none" d="M0 0h24v24H0z" fill="none"/>
		<line x1="12" y1="5" x2="12" y2="19" />
		<line x1="16" y1="15" x2="12" y2="19" />
		<line x1="8" y1="15" x2="12" y2="19" />
	</symbol>
	
	<symbol id="icon-corner-left-up" stroke="currentColor" viewBox="0 0 24 24">
		<path stroke="none" d="M0 0h24v24H0z" fill="none"/>
		<path d="M18 18h-6a3 3 0 0 1 -3 -3v-10l-4 4m8 0l-4 -4" />
	</symbol>
	
	<symbol id="icon-corner-left-down-double" stroke="currentColor" viewBox="0 0 24 24">
		<path stroke="none" d="M0 0h24v24H0z" fill="none"/>
		<path d="M18 4h-6a3 3 0 0 0 -3 3v7" />
		<path d="M13 10l-4 4l-4 -4m8 5l-4 4l-4 -4" />
	</symbol>
	
	<symbol id="icon-bed" stroke="currentColor" viewBox="0 0 24 24">
		<path stroke="none" d="M0 0h24v24H0z" fill="none"/>
		<path d="M3 7v11m0 -4h18m0 4v-8a2 2 0 0 0 -2 -2h-8v6" />
		<circle cx="7" cy="10" r="1" />
	</symbol>
	
	<symbol id="icon-h" stroke="currentColor" viewBox="0 0 24 24">
		<path stroke="none" d="M0 0h24v24H0z" fill="none"/>
		<path d="M7 12h10" />
		<path d="M7 4v16" />
		<path d="M17 4v16" />
		<path d="M15 20h4" />
		<path d="M15 4h4" />
		<path d="M5 20h4" />
		<path d="M5 4h4" />
	</symbol>
	
	<symbol id="icon-h1" stroke="currentColor" viewBox="0 0 24 24">
	  <path stroke="none" d="M0 0h24v24H0z" fill="none"/>
	  <path d="M19 18v-8l-2 2" />
	  <path d="M4 6v12" />
	  <path d="M12 6v12" />
	  <path d="M11 18h2" />
	  <path d="M3 18h2" />
	  <path d="M4 12h8" />
	  <path d="M3 6h2" />
	  <path d="M11 6h2" />
	</symbol>
	
	<symbol id="icon-list" stroke="currentColor" viewBox="0 0 24 24">
		<path stroke="none" d="M0 0h24v24H0z" fill="none"/>
		<line x1="9" y1="6" x2="20" y2="6" />
		<line x1="9" y1="12" x2="20" y2="12" />
		<line x1="9" y1="18" x2="20" y2="18" />
		<line x1="5" y1="6" x2="5" y2="6.01" />
		<line x1="5" y1="12" x2="5" y2="12.01" />
		<line x1="5" y1="18" x2="5" y2="18.01" />
	</symbol>
	
	<symbol id="icon-list-element" stroke="currentColor" viewBox="0 0 24 24">
		<path stroke="none" d="M0 0h24v24H0z" fill="none"/>
		<circle cx="12" cy="12" r="4" />
	</symbol>
</svg>